<mxfile host="app.diagrams.net" modified="2024-05-31T11:19:47.889Z" agent="Mozilla/5.0 (Windows NT 10.0; Win64; x64) AppleWebKit/537.36 (KHTML, like Gecko) Chrome/125.0.0.0 Safari/537.36" version="24.4.10" etag="RJ9lrY-oIRkZCl7oIaJX" type="device">
  <diagram id="_oPEQAeb7JhbwnMekdbA" name="Page-1">
    <mxGraphModel dx="2924" dy="772" grid="1" gridSize="10" guides="1" tooltips="1" connect="1" arrows="1" fold="1" page="1" pageScale="1" pageWidth="850" pageHeight="1100" math="0" shadow="0">
      <root>
        <mxCell id="0" />
        <mxCell id="1" parent="0" />
        <mxCell id="QatnbxuRAUDxJ5Da7VNo-4" value="Employee subsystem" style="swimlane;whiteSpace=wrap;html=1;startSize=23;fillColor=#dae8fc;strokeColor=#6c8ebf;" vertex="1" parent="1">
          <mxGeometry x="140" y="80" width="660" height="750" as="geometry" />
        </mxCell>
        <mxCell id="QatnbxuRAUDxJ5Da7VNo-5" style="edgeStyle=orthogonalEdgeStyle;rounded=0;orthogonalLoop=1;jettySize=auto;html=1;entryX=0;entryY=0.5;entryDx=0;entryDy=0;dashed=1;" edge="1" parent="QatnbxuRAUDxJ5Da7VNo-4" source="QatnbxuRAUDxJ5Da7VNo-11" target="QatnbxuRAUDxJ5Da7VNo-47">
          <mxGeometry relative="1" as="geometry" />
        </mxCell>
        <mxCell id="QatnbxuRAUDxJ5Da7VNo-6" value="&amp;lt;&amp;lt;includes&amp;gt;&amp;gt;" style="edgeLabel;html=1;align=center;verticalAlign=middle;resizable=0;points=[];" vertex="1" connectable="0" parent="QatnbxuRAUDxJ5Da7VNo-5">
          <mxGeometry x="-0.1072" y="3" relative="1" as="geometry">
            <mxPoint x="7" y="-7" as="offset" />
          </mxGeometry>
        </mxCell>
        <mxCell id="QatnbxuRAUDxJ5Da7VNo-11" value="View employees" style="ellipse;whiteSpace=wrap;html=1;" vertex="1" parent="QatnbxuRAUDxJ5Da7VNo-4">
          <mxGeometry x="75" y="92.5" width="100" height="40" as="geometry" />
        </mxCell>
        <mxCell id="QatnbxuRAUDxJ5Da7VNo-14" value="Edit employee permissions and info" style="ellipse;whiteSpace=wrap;html=1;" vertex="1" parent="QatnbxuRAUDxJ5Da7VNo-4">
          <mxGeometry x="110" y="380" width="120" height="80" as="geometry" />
        </mxCell>
        <mxCell id="QatnbxuRAUDxJ5Da7VNo-15" style="edgeStyle=orthogonalEdgeStyle;rounded=0;orthogonalLoop=1;jettySize=auto;html=1;entryX=0;entryY=0.5;entryDx=0;entryDy=0;dashed=1;" edge="1" parent="QatnbxuRAUDxJ5Da7VNo-4" source="QatnbxuRAUDxJ5Da7VNo-17" target="QatnbxuRAUDxJ5Da7VNo-35">
          <mxGeometry relative="1" as="geometry" />
        </mxCell>
        <mxCell id="QatnbxuRAUDxJ5Da7VNo-16" value="&amp;lt;&amp;lt;includes&amp;gt;&amp;gt;" style="edgeLabel;html=1;align=center;verticalAlign=middle;resizable=0;points=[];" vertex="1" connectable="0" parent="QatnbxuRAUDxJ5Da7VNo-15">
          <mxGeometry x="-0.0083" relative="1" as="geometry">
            <mxPoint y="-10" as="offset" />
          </mxGeometry>
        </mxCell>
        <mxCell id="QatnbxuRAUDxJ5Da7VNo-17" value="Remove employee for system" style="ellipse;whiteSpace=wrap;html=1;" vertex="1" parent="QatnbxuRAUDxJ5Da7VNo-4">
          <mxGeometry x="80" y="470" width="115" height="50" as="geometry" />
        </mxCell>
        <mxCell id="QatnbxuRAUDxJ5Da7VNo-18" value="Add employee" style="ellipse;whiteSpace=wrap;html=1;" vertex="1" parent="QatnbxuRAUDxJ5Da7VNo-4">
          <mxGeometry x="82.5" y="610" width="110" height="40" as="geometry" />
        </mxCell>
        <mxCell id="QatnbxuRAUDxJ5Da7VNo-19" style="edgeStyle=orthogonalEdgeStyle;rounded=0;orthogonalLoop=1;jettySize=auto;html=1;entryX=0;entryY=0.5;entryDx=0;entryDy=0;dashed=1;exitX=1.012;exitY=0.525;exitDx=0;exitDy=0;exitPerimeter=0;" edge="1" parent="QatnbxuRAUDxJ5Da7VNo-4" source="QatnbxuRAUDxJ5Da7VNo-14" target="QatnbxuRAUDxJ5Da7VNo-28">
          <mxGeometry relative="1" as="geometry">
            <mxPoint x="355" y="420" as="sourcePoint" />
            <Array as="points">
              <mxPoint x="405" y="417" />
              <mxPoint x="405" y="420" />
            </Array>
          </mxGeometry>
        </mxCell>
        <mxCell id="QatnbxuRAUDxJ5Da7VNo-20" value="&amp;lt;&amp;lt;includes&amp;gt;&amp;gt;" style="edgeLabel;html=1;align=center;verticalAlign=middle;resizable=0;points=[];" vertex="1" connectable="0" parent="QatnbxuRAUDxJ5Da7VNo-19">
          <mxGeometry x="-0.2381" y="1" relative="1" as="geometry">
            <mxPoint x="3" y="-19" as="offset" />
          </mxGeometry>
        </mxCell>
        <mxCell id="QatnbxuRAUDxJ5Da7VNo-22" style="edgeStyle=orthogonalEdgeStyle;rounded=0;orthogonalLoop=1;jettySize=auto;html=1;dashed=1;" edge="1" parent="QatnbxuRAUDxJ5Da7VNo-4" source="QatnbxuRAUDxJ5Da7VNo-24" target="QatnbxuRAUDxJ5Da7VNo-14">
          <mxGeometry relative="1" as="geometry">
            <Array as="points">
              <mxPoint x="415" y="240" />
              <mxPoint x="135" y="240" />
            </Array>
          </mxGeometry>
        </mxCell>
        <mxCell id="QatnbxuRAUDxJ5Da7VNo-23" value="&amp;lt;&amp;lt;extends&amp;gt;&amp;gt;" style="edgeLabel;html=1;align=center;verticalAlign=middle;resizable=0;points=[];" vertex="1" connectable="0" parent="QatnbxuRAUDxJ5Da7VNo-22">
          <mxGeometry x="-0.3373" relative="1" as="geometry">
            <mxPoint as="offset" />
          </mxGeometry>
        </mxCell>
        <mxCell id="QatnbxuRAUDxJ5Da7VNo-24" value="All jobs" style="ellipse;whiteSpace=wrap;html=1;" vertex="1" parent="QatnbxuRAUDxJ5Da7VNo-4">
          <mxGeometry x="372.5" y="290" width="85" height="30" as="geometry" />
        </mxCell>
        <mxCell id="QatnbxuRAUDxJ5Da7VNo-25" style="edgeStyle=orthogonalEdgeStyle;rounded=0;orthogonalLoop=1;jettySize=auto;html=1;dashed=1;" edge="1" parent="QatnbxuRAUDxJ5Da7VNo-4" source="QatnbxuRAUDxJ5Da7VNo-27" target="QatnbxuRAUDxJ5Da7VNo-14">
          <mxGeometry relative="1" as="geometry">
            <mxPoint x="120" y="160" as="targetPoint" />
            <Array as="points">
              <mxPoint x="180" y="210" />
            </Array>
          </mxGeometry>
        </mxCell>
        <mxCell id="QatnbxuRAUDxJ5Da7VNo-26" value="&amp;lt;&amp;lt;extends&amp;gt;&amp;gt;" style="edgeLabel;html=1;align=center;verticalAlign=middle;resizable=0;points=[];" vertex="1" connectable="0" parent="QatnbxuRAUDxJ5Da7VNo-25">
          <mxGeometry y="1" relative="1" as="geometry">
            <mxPoint as="offset" />
          </mxGeometry>
        </mxCell>
        <mxCell id="QatnbxuRAUDxJ5Da7VNo-27" value="All employees under me" style="ellipse;whiteSpace=wrap;html=1;" vertex="1" parent="QatnbxuRAUDxJ5Da7VNo-4">
          <mxGeometry x="357.5" y="175" width="85" height="50" as="geometry" />
        </mxCell>
        <mxCell id="QatnbxuRAUDxJ5Da7VNo-28" value="Save to database" style="ellipse;whiteSpace=wrap;html=1;" vertex="1" parent="QatnbxuRAUDxJ5Da7VNo-4">
          <mxGeometry x="417.5" y="400" width="80" height="40" as="geometry" />
        </mxCell>
        <mxCell id="QatnbxuRAUDxJ5Da7VNo-35" value="Remove employee username form company in the database" style="ellipse;whiteSpace=wrap;html=1;" vertex="1" parent="QatnbxuRAUDxJ5Da7VNo-4">
          <mxGeometry x="390" y="465" width="135" height="70" as="geometry" />
        </mxCell>
        <mxCell id="QatnbxuRAUDxJ5Da7VNo-97" style="edgeStyle=orthogonalEdgeStyle;rounded=0;orthogonalLoop=1;jettySize=auto;html=1;exitX=0;exitY=0.5;exitDx=0;exitDy=0;entryX=1;entryY=0.5;entryDx=0;entryDy=0;dashed=1;" edge="1" parent="QatnbxuRAUDxJ5Da7VNo-4" source="QatnbxuRAUDxJ5Da7VNo-38" target="QatnbxuRAUDxJ5Da7VNo-18">
          <mxGeometry relative="1" as="geometry">
            <Array as="points">
              <mxPoint x="240" y="570" />
              <mxPoint x="240" y="630" />
            </Array>
          </mxGeometry>
        </mxCell>
        <mxCell id="QatnbxuRAUDxJ5Da7VNo-101" value="&amp;lt;&amp;lt;extends&amp;gt;&amp;gt;" style="edgeLabel;html=1;align=center;verticalAlign=middle;resizable=0;points=[];" vertex="1" connectable="0" parent="QatnbxuRAUDxJ5Da7VNo-97">
          <mxGeometry x="-0.3797" y="-1" relative="1" as="geometry">
            <mxPoint x="23" y="1" as="offset" />
          </mxGeometry>
        </mxCell>
        <mxCell id="QatnbxuRAUDxJ5Da7VNo-108" style="edgeStyle=orthogonalEdgeStyle;rounded=0;orthogonalLoop=1;jettySize=auto;html=1;entryX=0;entryY=0.5;entryDx=0;entryDy=0;dashed=1;" edge="1" parent="QatnbxuRAUDxJ5Da7VNo-4" source="QatnbxuRAUDxJ5Da7VNo-38" target="QatnbxuRAUDxJ5Da7VNo-103">
          <mxGeometry relative="1" as="geometry" />
        </mxCell>
        <mxCell id="QatnbxuRAUDxJ5Da7VNo-109" value="&amp;lt;&amp;lt;includes&amp;gt;&amp;gt;" style="edgeLabel;html=1;align=center;verticalAlign=middle;resizable=0;points=[];" vertex="1" connectable="0" parent="QatnbxuRAUDxJ5Da7VNo-108">
          <mxGeometry x="-0.2364" y="-1" relative="1" as="geometry">
            <mxPoint x="9" y="-1" as="offset" />
          </mxGeometry>
        </mxCell>
        <mxCell id="QatnbxuRAUDxJ5Da7VNo-38" value="Add using their username" style="ellipse;whiteSpace=wrap;html=1;" vertex="1" parent="QatnbxuRAUDxJ5Da7VNo-4">
          <mxGeometry x="340" y="545" width="100" height="50" as="geometry" />
        </mxCell>
        <mxCell id="QatnbxuRAUDxJ5Da7VNo-40" style="edgeStyle=orthogonalEdgeStyle;rounded=0;orthogonalLoop=1;jettySize=auto;html=1;dashed=1;" edge="1" parent="QatnbxuRAUDxJ5Da7VNo-4" source="QatnbxuRAUDxJ5Da7VNo-27" target="QatnbxuRAUDxJ5Da7VNo-11">
          <mxGeometry relative="1" as="geometry">
            <mxPoint x="170" y="340" as="targetPoint" />
            <Array as="points">
              <mxPoint x="125" y="280" />
            </Array>
          </mxGeometry>
        </mxCell>
        <mxCell id="QatnbxuRAUDxJ5Da7VNo-41" value="&amp;lt;&amp;lt;extends&amp;gt;&amp;gt;" style="edgeLabel;html=1;align=center;verticalAlign=middle;resizable=0;points=[];" vertex="1" connectable="0" parent="QatnbxuRAUDxJ5Da7VNo-40">
          <mxGeometry x="0.1075" y="2" relative="1" as="geometry">
            <mxPoint x="81" y="-2" as="offset" />
          </mxGeometry>
        </mxCell>
        <mxCell id="QatnbxuRAUDxJ5Da7VNo-42" style="edgeStyle=orthogonalEdgeStyle;rounded=0;orthogonalLoop=1;jettySize=auto;html=1;dashed=1;entryX=0.702;entryY=1.021;entryDx=0;entryDy=0;entryPerimeter=0;" edge="1" parent="QatnbxuRAUDxJ5Da7VNo-4" source="QatnbxuRAUDxJ5Da7VNo-24" target="QatnbxuRAUDxJ5Da7VNo-11">
          <mxGeometry relative="1" as="geometry">
            <mxPoint x="150" y="140" as="targetPoint" />
            <Array as="points">
              <mxPoint x="480" y="305" />
              <mxPoint x="480" y="170" />
              <mxPoint x="145" y="170" />
            </Array>
          </mxGeometry>
        </mxCell>
        <mxCell id="QatnbxuRAUDxJ5Da7VNo-43" value="&amp;lt;&amp;lt;extends&amp;gt;&amp;gt;" style="edgeLabel;html=1;align=center;verticalAlign=middle;resizable=0;points=[];" vertex="1" connectable="0" parent="QatnbxuRAUDxJ5Da7VNo-42">
          <mxGeometry x="-0.4998" y="-2" relative="1" as="geometry">
            <mxPoint as="offset" />
          </mxGeometry>
        </mxCell>
        <mxCell id="QatnbxuRAUDxJ5Da7VNo-44" value="Display information" style="ellipse;whiteSpace=wrap;html=1;" vertex="1" parent="QatnbxuRAUDxJ5Da7VNo-4">
          <mxGeometry x="487.5" y="90" width="112.5" height="45" as="geometry" />
        </mxCell>
        <mxCell id="QatnbxuRAUDxJ5Da7VNo-45" style="edgeStyle=orthogonalEdgeStyle;rounded=0;orthogonalLoop=1;jettySize=auto;html=1;entryX=0;entryY=0.5;entryDx=0;entryDy=0;dashed=1;" edge="1" parent="QatnbxuRAUDxJ5Da7VNo-4" source="QatnbxuRAUDxJ5Da7VNo-47" target="QatnbxuRAUDxJ5Da7VNo-44">
          <mxGeometry relative="1" as="geometry" />
        </mxCell>
        <mxCell id="QatnbxuRAUDxJ5Da7VNo-46" value="&amp;lt;&amp;lt;includes&amp;gt;&amp;gt;" style="edgeLabel;html=1;align=center;verticalAlign=middle;resizable=0;points=[];" vertex="1" connectable="0" parent="QatnbxuRAUDxJ5Da7VNo-45">
          <mxGeometry x="-0.5776" y="4" relative="1" as="geometry">
            <mxPoint x="25" y="-6" as="offset" />
          </mxGeometry>
        </mxCell>
        <mxCell id="QatnbxuRAUDxJ5Da7VNo-47" value="Retrieve information" style="ellipse;whiteSpace=wrap;html=1;" vertex="1" parent="QatnbxuRAUDxJ5Da7VNo-4">
          <mxGeometry x="290" y="92.5" width="80" height="40" as="geometry" />
        </mxCell>
        <mxCell id="QatnbxuRAUDxJ5Da7VNo-50" style="edgeStyle=orthogonalEdgeStyle;rounded=0;orthogonalLoop=1;jettySize=auto;html=1;" edge="1" parent="QatnbxuRAUDxJ5Da7VNo-4" source="QatnbxuRAUDxJ5Da7VNo-51" target="QatnbxuRAUDxJ5Da7VNo-58">
          <mxGeometry relative="1" as="geometry">
            <Array as="points">
              <mxPoint x="-160" y="280" />
              <mxPoint x="-160" y="370" />
            </Array>
          </mxGeometry>
        </mxCell>
        <mxCell id="QatnbxuRAUDxJ5Da7VNo-51" value="User" style="shape=umlActor;verticalLabelPosition=bottom;verticalAlign=top;html=1;outlineConnect=0;" vertex="1" parent="QatnbxuRAUDxJ5Da7VNo-4">
          <mxGeometry x="-220" y="250" width="30" height="60" as="geometry" />
        </mxCell>
        <mxCell id="QatnbxuRAUDxJ5Da7VNo-52" style="edgeStyle=orthogonalEdgeStyle;rounded=0;orthogonalLoop=1;jettySize=auto;html=1;endArrow=none;endFill=0;fillColor=#e1d5e7;strokeColor=#9673a6;" edge="1" parent="QatnbxuRAUDxJ5Da7VNo-4" source="QatnbxuRAUDxJ5Da7VNo-54" target="QatnbxuRAUDxJ5Da7VNo-11">
          <mxGeometry relative="1" as="geometry">
            <Array as="points">
              <mxPoint x="-10" y="200" />
              <mxPoint x="-10" y="110" />
            </Array>
          </mxGeometry>
        </mxCell>
        <mxCell id="QatnbxuRAUDxJ5Da7VNo-53" style="edgeStyle=orthogonalEdgeStyle;rounded=0;orthogonalLoop=1;jettySize=auto;html=1;entryX=0;entryY=0.5;entryDx=0;entryDy=0;endArrow=none;endFill=0;fillColor=#e1d5e7;strokeColor=#9673a6;" edge="1" parent="QatnbxuRAUDxJ5Da7VNo-4" source="QatnbxuRAUDxJ5Da7VNo-54" target="QatnbxuRAUDxJ5Da7VNo-27">
          <mxGeometry relative="1" as="geometry">
            <Array as="points">
              <mxPoint x="190" y="200" />
              <mxPoint x="190" y="200" />
            </Array>
          </mxGeometry>
        </mxCell>
        <mxCell id="QatnbxuRAUDxJ5Da7VNo-54" value="General user" style="shape=umlActor;verticalLabelPosition=bottom;verticalAlign=top;html=1;outlineConnect=0;" vertex="1" parent="QatnbxuRAUDxJ5Da7VNo-4">
          <mxGeometry x="-100" y="170" width="30" height="60" as="geometry" />
        </mxCell>
        <mxCell id="QatnbxuRAUDxJ5Da7VNo-55" style="edgeStyle=orthogonalEdgeStyle;rounded=0;orthogonalLoop=1;jettySize=auto;html=1;endArrow=none;endFill=0;fillColor=#f8cecc;strokeColor=#b85450;" edge="1" parent="QatnbxuRAUDxJ5Da7VNo-4" source="QatnbxuRAUDxJ5Da7VNo-58" target="QatnbxuRAUDxJ5Da7VNo-11">
          <mxGeometry relative="1" as="geometry">
            <Array as="points">
              <mxPoint x="10" y="360" />
              <mxPoint x="10" y="110" />
            </Array>
          </mxGeometry>
        </mxCell>
        <mxCell id="QatnbxuRAUDxJ5Da7VNo-56" style="edgeStyle=orthogonalEdgeStyle;rounded=0;orthogonalLoop=1;jettySize=auto;html=1;endArrow=none;endFill=0;fillColor=#f8cecc;strokeColor=#b85450;" edge="1" parent="QatnbxuRAUDxJ5Da7VNo-4" source="QatnbxuRAUDxJ5Da7VNo-58" target="QatnbxuRAUDxJ5Da7VNo-24">
          <mxGeometry relative="1" as="geometry">
            <Array as="points">
              <mxPoint x="30" y="360" />
              <mxPoint x="30" y="305" />
            </Array>
          </mxGeometry>
        </mxCell>
        <mxCell id="QatnbxuRAUDxJ5Da7VNo-58" value="Managerial" style="shape=umlActor;verticalLabelPosition=bottom;verticalAlign=top;html=1;outlineConnect=0;" vertex="1" parent="QatnbxuRAUDxJ5Da7VNo-4">
          <mxGeometry x="-100" y="330" width="30" height="60" as="geometry" />
        </mxCell>
        <mxCell id="QatnbxuRAUDxJ5Da7VNo-59" style="edgeStyle=orthogonalEdgeStyle;rounded=0;orthogonalLoop=1;jettySize=auto;html=1;entryX=0.5;entryY=0.5;entryDx=0;entryDy=0;entryPerimeter=0;" edge="1" parent="QatnbxuRAUDxJ5Da7VNo-4" source="QatnbxuRAUDxJ5Da7VNo-51" target="QatnbxuRAUDxJ5Da7VNo-54">
          <mxGeometry relative="1" as="geometry">
            <Array as="points">
              <mxPoint x="-160" y="280" />
              <mxPoint x="-160" y="200" />
            </Array>
          </mxGeometry>
        </mxCell>
        <mxCell id="QatnbxuRAUDxJ5Da7VNo-60" value="API" style="shape=umlActor;verticalLabelPosition=bottom;verticalAlign=top;html=1;outlineConnect=0;" vertex="1" parent="QatnbxuRAUDxJ5Da7VNo-4">
          <mxGeometry x="710" y="320" width="30" height="60" as="geometry" />
        </mxCell>
        <mxCell id="QatnbxuRAUDxJ5Da7VNo-61" style="edgeStyle=orthogonalEdgeStyle;rounded=0;orthogonalLoop=1;jettySize=auto;html=1;endArrow=none;endFill=0;entryX=0;entryY=0.5;entryDx=0;entryDy=0;fillColor=#f8cecc;strokeColor=#b85450;" edge="1" parent="QatnbxuRAUDxJ5Da7VNo-4" source="QatnbxuRAUDxJ5Da7VNo-58" target="QatnbxuRAUDxJ5Da7VNo-17">
          <mxGeometry relative="1" as="geometry">
            <mxPoint x="80" y="500" as="targetPoint" />
            <Array as="points">
              <mxPoint x="10" y="360" />
              <mxPoint x="10" y="500" />
            </Array>
          </mxGeometry>
        </mxCell>
        <mxCell id="QatnbxuRAUDxJ5Da7VNo-62" style="edgeStyle=orthogonalEdgeStyle;rounded=0;orthogonalLoop=1;jettySize=auto;html=1;endArrow=none;endFill=0;entryX=0;entryY=0.5;entryDx=0;entryDy=0;fillColor=#f8cecc;strokeColor=#b85450;" edge="1" parent="QatnbxuRAUDxJ5Da7VNo-4" source="QatnbxuRAUDxJ5Da7VNo-58" target="QatnbxuRAUDxJ5Da7VNo-18">
          <mxGeometry relative="1" as="geometry">
            <Array as="points">
              <mxPoint x="10" y="360" />
              <mxPoint x="10" y="630" />
            </Array>
          </mxGeometry>
        </mxCell>
        <mxCell id="QatnbxuRAUDxJ5Da7VNo-63" style="edgeStyle=orthogonalEdgeStyle;rounded=0;orthogonalLoop=1;jettySize=auto;html=1;endArrow=none;endFill=0;entryX=0.334;entryY=0.033;entryDx=0;entryDy=0;entryPerimeter=0;fillColor=#e1d5e7;strokeColor=#9673a6;" edge="1" parent="QatnbxuRAUDxJ5Da7VNo-4" source="QatnbxuRAUDxJ5Da7VNo-54" target="QatnbxuRAUDxJ5Da7VNo-14">
          <mxGeometry relative="1" as="geometry">
            <Array as="points">
              <mxPoint x="-10" y="200" />
              <mxPoint x="-10" y="290" />
              <mxPoint x="150" y="290" />
            </Array>
            <mxPoint x="150" y="381" as="targetPoint" />
          </mxGeometry>
        </mxCell>
        <mxCell id="QatnbxuRAUDxJ5Da7VNo-64" style="edgeStyle=orthogonalEdgeStyle;rounded=0;orthogonalLoop=1;jettySize=auto;html=1;entryX=0.5;entryY=0.5;entryDx=0;entryDy=0;entryPerimeter=0;endArrow=none;endFill=0;fillColor=#d5e8d4;strokeColor=#82b366;" edge="1" parent="QatnbxuRAUDxJ5Da7VNo-4" source="QatnbxuRAUDxJ5Da7VNo-28" target="QatnbxuRAUDxJ5Da7VNo-60">
          <mxGeometry relative="1" as="geometry">
            <Array as="points">
              <mxPoint x="690" y="420" />
              <mxPoint x="690" y="350" />
            </Array>
          </mxGeometry>
        </mxCell>
        <mxCell id="QatnbxuRAUDxJ5Da7VNo-65" style="edgeStyle=orthogonalEdgeStyle;rounded=0;orthogonalLoop=1;jettySize=auto;html=1;endArrow=none;endFill=0;fillColor=#d5e8d4;strokeColor=#82b366;" edge="1" parent="QatnbxuRAUDxJ5Da7VNo-4" source="QatnbxuRAUDxJ5Da7VNo-47" target="QatnbxuRAUDxJ5Da7VNo-60">
          <mxGeometry relative="1" as="geometry">
            <Array as="points">
              <mxPoint x="330" y="40" />
              <mxPoint x="720" y="40" />
            </Array>
          </mxGeometry>
        </mxCell>
        <mxCell id="QatnbxuRAUDxJ5Da7VNo-66" style="edgeStyle=orthogonalEdgeStyle;rounded=0;orthogonalLoop=1;jettySize=auto;html=1;endArrow=none;endFill=0;fillColor=#d5e8d4;strokeColor=#82b366;" edge="1" parent="QatnbxuRAUDxJ5Da7VNo-4" source="QatnbxuRAUDxJ5Da7VNo-35" target="QatnbxuRAUDxJ5Da7VNo-60">
          <mxGeometry relative="1" as="geometry">
            <Array as="points">
              <mxPoint x="725" y="500" />
            </Array>
          </mxGeometry>
        </mxCell>
        <mxCell id="QatnbxuRAUDxJ5Da7VNo-69" style="edgeStyle=orthogonalEdgeStyle;rounded=0;orthogonalLoop=1;jettySize=auto;html=1;endArrow=none;endFill=0;entryX=0;entryY=0.5;entryDx=0;entryDy=0;fillColor=#f8cecc;strokeColor=#b85450;" edge="1" parent="QatnbxuRAUDxJ5Da7VNo-4" source="QatnbxuRAUDxJ5Da7VNo-58" target="QatnbxuRAUDxJ5Da7VNo-14">
          <mxGeometry relative="1" as="geometry">
            <mxPoint x="90" y="420" as="targetPoint" />
            <Array as="points">
              <mxPoint x="30" y="360" />
              <mxPoint x="30" y="420" />
            </Array>
          </mxGeometry>
        </mxCell>
        <mxCell id="QatnbxuRAUDxJ5Da7VNo-98" style="edgeStyle=orthogonalEdgeStyle;rounded=0;orthogonalLoop=1;jettySize=auto;html=1;dashed=1;" edge="1" parent="QatnbxuRAUDxJ5Da7VNo-4" source="QatnbxuRAUDxJ5Da7VNo-81">
          <mxGeometry relative="1" as="geometry">
            <mxPoint x="190" y="630" as="targetPoint" />
          </mxGeometry>
        </mxCell>
        <mxCell id="QatnbxuRAUDxJ5Da7VNo-100" value="&amp;lt;&amp;lt;extends&amp;gt;&amp;gt;" style="edgeLabel;html=1;align=center;verticalAlign=middle;resizable=0;points=[];" vertex="1" connectable="0" parent="QatnbxuRAUDxJ5Da7VNo-98">
          <mxGeometry x="-0.4723" relative="1" as="geometry">
            <mxPoint x="-9" as="offset" />
          </mxGeometry>
        </mxCell>
        <mxCell id="QatnbxuRAUDxJ5Da7VNo-107" style="edgeStyle=orthogonalEdgeStyle;rounded=0;orthogonalLoop=1;jettySize=auto;html=1;entryX=0;entryY=0.5;entryDx=0;entryDy=0;dashed=1;" edge="1" parent="QatnbxuRAUDxJ5Da7VNo-4" source="QatnbxuRAUDxJ5Da7VNo-81" target="QatnbxuRAUDxJ5Da7VNo-104">
          <mxGeometry relative="1" as="geometry" />
        </mxCell>
        <mxCell id="QatnbxuRAUDxJ5Da7VNo-110" value="&amp;lt;&amp;lt;includes&amp;gt;&amp;gt;" style="edgeLabel;html=1;align=center;verticalAlign=middle;resizable=0;points=[];" vertex="1" connectable="0" parent="QatnbxuRAUDxJ5Da7VNo-107">
          <mxGeometry x="-0.7285" y="1" relative="1" as="geometry">
            <mxPoint x="31" y="1" as="offset" />
          </mxGeometry>
        </mxCell>
        <mxCell id="QatnbxuRAUDxJ5Da7VNo-81" value="Send them a hyperlink&amp;nbsp;" style="ellipse;whiteSpace=wrap;html=1;" vertex="1" parent="QatnbxuRAUDxJ5Da7VNo-4">
          <mxGeometry x="337.5" y="605" width="110" height="50" as="geometry" />
        </mxCell>
        <mxCell id="QatnbxuRAUDxJ5Da7VNo-99" style="edgeStyle=orthogonalEdgeStyle;rounded=0;orthogonalLoop=1;jettySize=auto;html=1;entryX=1;entryY=0.5;entryDx=0;entryDy=0;dashed=1;" edge="1" parent="QatnbxuRAUDxJ5Da7VNo-4" source="QatnbxuRAUDxJ5Da7VNo-87" target="QatnbxuRAUDxJ5Da7VNo-18">
          <mxGeometry relative="1" as="geometry">
            <Array as="points">
              <mxPoint x="240" y="705" />
              <mxPoint x="240" y="630" />
            </Array>
          </mxGeometry>
        </mxCell>
        <mxCell id="QatnbxuRAUDxJ5Da7VNo-102" value="&amp;lt;&amp;lt;extends&amp;gt;&amp;gt;" style="edgeLabel;html=1;align=center;verticalAlign=middle;resizable=0;points=[];" vertex="1" connectable="0" parent="QatnbxuRAUDxJ5Da7VNo-99">
          <mxGeometry x="-0.3494" y="-1" relative="1" as="geometry">
            <mxPoint x="21" y="1" as="offset" />
          </mxGeometry>
        </mxCell>
        <mxCell id="QatnbxuRAUDxJ5Da7VNo-106" style="edgeStyle=orthogonalEdgeStyle;rounded=0;orthogonalLoop=1;jettySize=auto;html=1;entryX=0;entryY=0.5;entryDx=0;entryDy=0;dashed=1;" edge="1" parent="QatnbxuRAUDxJ5Da7VNo-4" source="QatnbxuRAUDxJ5Da7VNo-87" target="QatnbxuRAUDxJ5Da7VNo-105">
          <mxGeometry relative="1" as="geometry" />
        </mxCell>
        <mxCell id="QatnbxuRAUDxJ5Da7VNo-111" value="&amp;lt;&amp;lt;includes&amp;gt;&amp;gt;" style="edgeLabel;html=1;align=center;verticalAlign=middle;resizable=0;points=[];" vertex="1" connectable="0" parent="QatnbxuRAUDxJ5Da7VNo-106">
          <mxGeometry x="-0.3271" y="-1" relative="1" as="geometry">
            <mxPoint x="14" y="-1" as="offset" />
          </mxGeometry>
        </mxCell>
        <mxCell id="QatnbxuRAUDxJ5Da7VNo-87" value="Send them companyID" style="ellipse;whiteSpace=wrap;html=1;" vertex="1" parent="QatnbxuRAUDxJ5Da7VNo-4">
          <mxGeometry x="342.5" y="680" width="100" height="50" as="geometry" />
        </mxCell>
        <mxCell id="QatnbxuRAUDxJ5Da7VNo-112" style="edgeStyle=orthogonalEdgeStyle;rounded=0;orthogonalLoop=1;jettySize=auto;html=1;endArrow=none;endFill=0;fillColor=#d5e8d4;strokeColor=#82b366;" edge="1" parent="QatnbxuRAUDxJ5Da7VNo-4" source="QatnbxuRAUDxJ5Da7VNo-103" target="QatnbxuRAUDxJ5Da7VNo-60">
          <mxGeometry relative="1" as="geometry" />
        </mxCell>
        <mxCell id="QatnbxuRAUDxJ5Da7VNo-103" value="Verify user exists" style="ellipse;whiteSpace=wrap;html=1;" vertex="1" parent="QatnbxuRAUDxJ5Da7VNo-4">
          <mxGeometry x="540" y="552.5" width="90" height="35" as="geometry" />
        </mxCell>
        <mxCell id="QatnbxuRAUDxJ5Da7VNo-114" style="edgeStyle=orthogonalEdgeStyle;rounded=0;orthogonalLoop=1;jettySize=auto;html=1;endArrow=none;endFill=0;fillColor=#d5e8d4;strokeColor=#82b366;" edge="1" parent="QatnbxuRAUDxJ5Da7VNo-4" source="QatnbxuRAUDxJ5Da7VNo-104" target="QatnbxuRAUDxJ5Da7VNo-60">
          <mxGeometry relative="1" as="geometry" />
        </mxCell>
        <mxCell id="QatnbxuRAUDxJ5Da7VNo-104" value="generate hyperlink" style="ellipse;whiteSpace=wrap;html=1;" vertex="1" parent="QatnbxuRAUDxJ5Da7VNo-4">
          <mxGeometry x="544.5" y="605" width="81" height="50" as="geometry" />
        </mxCell>
        <mxCell id="QatnbxuRAUDxJ5Da7VNo-113" style="edgeStyle=orthogonalEdgeStyle;rounded=0;orthogonalLoop=1;jettySize=auto;html=1;exitX=1;exitY=0.5;exitDx=0;exitDy=0;endArrow=none;endFill=0;fillColor=#d5e8d4;strokeColor=#82b366;" edge="1" parent="QatnbxuRAUDxJ5Da7VNo-4" source="QatnbxuRAUDxJ5Da7VNo-105">
          <mxGeometry relative="1" as="geometry">
            <mxPoint x="725" y="380" as="targetPoint" />
            <Array as="points">
              <mxPoint x="725" y="705" />
            </Array>
          </mxGeometry>
        </mxCell>
        <mxCell id="QatnbxuRAUDxJ5Da7VNo-105" value="Retrieve companyID" style="ellipse;whiteSpace=wrap;html=1;" vertex="1" parent="QatnbxuRAUDxJ5Da7VNo-4">
          <mxGeometry x="549" y="680" width="72" height="50" as="geometry" />
        </mxCell>
        <mxCell id="QatnbxuRAUDxJ5Da7VNo-115" style="edgeStyle=orthogonalEdgeStyle;rounded=0;orthogonalLoop=1;jettySize=auto;html=1;exitX=0.5;exitY=1;exitDx=0;exitDy=0;" edge="1" parent="QatnbxuRAUDxJ5Da7VNo-4" source="QatnbxuRAUDxJ5Da7VNo-27" target="QatnbxuRAUDxJ5Da7VNo-27">
          <mxGeometry relative="1" as="geometry" />
        </mxCell>
      </root>
    </mxGraphModel>
  </diagram>
</mxfile>
